<svg xmlns="http://www.w3.org/2000/svg" version="1.1" xmlns:xlink="http://www.w3.org/1999/xlink" xmlns:svgjs="http://svgjs.dev/svgjs" width="2000" height="247" viewBox="0 0 2000 247"><g transform="matrix(1,0,0,1,-1.2121212121212466,-0.5293767709665076)"><svg viewBox="0 0 396 49" data-background-color="#ffffff" preserveAspectRatio="xMidYMid meet" height="247" width="2000" xmlns="http://www.w3.org/2000/svg" xmlns:xlink="http://www.w3.org/1999/xlink"><g id="tight-bounds" transform="matrix(1,0,0,1,0.2400000000000091,0.1050180638759457)"><svg viewBox="0 0 395.52 48.78996387224812" height="48.78996387224812" width="395.52"><g><svg viewBox="0 0 706.8003295387516 87.18841662390969" height="48.78996387224812" width="395.52"><g><rect width="7.823623273224013" height="87.18841662390969" x="264.91204919692143" y="0" fill="#ffffff" opacity="1" stroke-width="0" stroke="transparent" fill-opacity="1" class="rect-qz-0" data-fill-palette-color="primary" rx="1%" id="qz-0" data-palette-color="#152232"></rect></g><g><rect width="7.823623273224013" height="87.18841662390969" x="282.9760170686062" y="0" fill="#ffffff" opacity="1" stroke-width="0" stroke="transparent" fill-opacity="1" class="rect-qz-1" data-fill-palette-color="primary" rx="1%" id="qz-1" data-palette-color="#152232"></rect></g><g transform="matrix(1,0,0,1,311.28032953875174,0.21688660851718566)"><svg viewBox="0 0 395.5199999999999 86.75464340687532" height="86.75464340687532" width="395.5199999999999"><g id="textblocktransform"><svg viewBox="0 0 395.5199999999999 86.75464340687532" height="86.75464340687532" width="395.5199999999999" id="textblock"><g><svg viewBox="0 0 395.5199999999999 86.75464340687532" height="86.75464340687532" width="395.5199999999999"><g transform="matrix(1,0,0,1,0,0)"><svg width="395.5199999999999" viewBox="1.1 -38.05 194.88 42.75" height="86.75464340687532" data-palette-color="#152232"><path d="M11.7-17.45L11.7-17.45Q8.8-15.4 8.8-11.35L8.8-11.35Q8.8-8.8 10.63-6.55 12.45-4.3 16.8-4.3 21.15-4.3 25.05-7.25 28.95-10.2 30.95-13.7L30.95-13.7 32.65-10.65Q26.2 0.3 14.7 0.3L14.7 0.3Q9 0.3 5.05-2.78 1.1-5.85 1.1-10L1.1-10Q1.1-17.25 7.55-20.5L7.55-20.5Q5.4-23.15 5.4-26.7L5.4-26.7Q5.4-31.35 9.43-34.7 13.45-38.05 18.75-38.05 24.05-38.05 26.93-35.35 29.8-32.65 29.8-28.25L29.8-28.25 25.05-28.25Q25.1-30.95 23.63-32.33 22.15-33.7 19.53-33.7 16.9-33.7 14.8-31.8L14.8-31.8Q12.45-29.75 12.45-27 12.45-24.25 13.95-22.25L13.95-22.25Q18.95-22.85 21.55-21.6L21.55-21.6Q23.15-20.85 23.15-19.23 23.15-17.6 21.33-16.95 19.5-16.3 16.95-16.3 14.4-16.3 11.7-17.45ZM50.45-6.15Q49.65-3.05 47.9-1.38 46.15 0.3 43.77 0.3 41.4 0.3 40.12-0.65 38.85-1.6 37.75-3.85L37.75-3.85 36.15-6.95 33.7-3.4Q31.3 0.05 28.7 0.05L28.7 0.05Q26.7 0.05 25.62-1.07 24.55-2.2 24.55-3.8L24.55-3.8Q24.55-6.5 26.67-8.03 28.8-9.55 31.2-9.55L31.2-9.55Q31.9-9.55 32.65-9.4L32.65-9.4 33.85-11.2Q30.25-17.7 29.9-18.25L29.9-18.25Q29.3-19.1 28.77-19.1 28.25-19.1 27.9-18.73 27.55-18.35 27.55-17.7 27.55-17.05 27.75-16.25L27.75-16.25 26.5-15.9Q26.05-16.5 25.75-17.63 25.45-18.75 25.45-19.4L25.45-19.4Q25.45-21.85 27-23.23 28.55-24.6 31.05-24.6L31.05-24.6Q34.1-24.6 35.8-21.3L35.8-21.3 37.85-17.35 40.6-21.65Q41.8-23.5 42.8-24.13 43.8-24.75 45.37-24.75 46.95-24.75 48.1-23.63 49.25-22.5 49.25-20.95L49.25-20.95Q49.25-18.3 47.35-16.85 45.45-15.4 43.15-15.4L43.15-15.4Q42.7-15.4 42-15.5L42-15.5 40.2-12.85Q43.6-6.25 43.95-5.6L43.95-5.6Q44.7-4.25 45.85-4.25L45.85-4.25Q47.4-4.25 48.3-7L48.3-7 48.5-7.6Q48.55-7.75 48.75-8.6L48.75-8.6 50.45-6.15ZM46.15-20.9L46.15-20.9Q45.65-20.9 45.22-20.38 44.8-19.85 43.25-17.4L43.25-17.4Q44.6-17.4 45.8-18.07 47-18.75 47.05-19.83 47.1-20.9 46.15-20.9ZM31.4-7.55L31-7.55Q29.6-7.55 28.3-6.85 27-6.15 27-5.1 27-4.05 27.9-4.05L27.9-4.05Q28.95-4.05 31.4-7.55L31.4-7.55ZM66.84-16.95L66.84-16.95Q66.84-20.2 63.95-20.2L63.95-20.2Q61.8-20.2 60.09-17.75L60.09-17.75Q58.3-15.1 58.3-11.55 58.3-8 59.87-6.08 61.45-4.15 64.2-4.15L64.2-4.15Q67.5-4.15 71.17-6.85 74.84-9.55 77.09-13.55L77.09-13.55Q78.09-12.8 79.05-10.8L79.05-10.8Q77.59-7.9 73.65-4.3L73.65-4.3Q71.59-2.4 68.55-1.1L68.55-1.1Q65.25 0.3 61.95 0.3L61.95 0.3Q57.5 0.3 54.42-2.75 51.34-5.8 51.34-10.7L51.34-10.7Q51.34-16.65 55.34-20.35 59.34-24.05 64.3-24.05L64.3-24.05Q68.15-24.05 70.4-22.45 72.65-20.85 72.65-18.25L72.65-18.25Q72.65-16.55 71.45-15.3L71.45-15.3Q69.25-13.1 66.09-13.1L66.09-13.1Q66.84-15.6 66.84-16.95ZM83.94-11.2Q87.04-11.85 88.57-13.7 90.09-15.55 90.09-17.28 90.09-19 89.17-19.63 88.24-20.25 87.14-20.25L87.14-20.25Q84.79-20.25 83.02-17.63 81.24-15 81.24-11.38 81.24-7.75 82.97-5.98 84.69-4.2 87.24-4.2L87.24-4.2Q90.99-4.2 94.44-6.8 97.89-9.4 100.04-13.6L100.04-13.6Q101.14-12.55 102.04-11L102.04-11Q100.39-7.25 96.19-3.65L96.19-3.65Q94.09-1.9 91.22-0.8 88.34 0.3 85.29 0.3L85.29 0.3Q80.29 0.3 77.39-2.75L77.39-2.75Q74.29-6.05 74.29-11.2 74.29-16.35 78.17-20.2 82.04-24.05 87.44-24.05L87.44-24.05Q91.29-24.05 93.69-22.38 96.09-20.7 96.14-17.85L96.14-17.85Q96.14-14 93.07-11.6 89.99-9.2 84.64-8.25L84.64-8.25 83.94-11.2ZM104.67 0.35Q101.59 0.35 99.84-1.38 98.09-3.1 98.09-6.1L98.09-6.1Q98.09-6.9 100.79-29.85L100.79-29.85Q101.49-35.75 104.54-37.3L104.54-37.3Q105.94-38.05 107.89-38.05L107.89-38.05Q114.49-38.05 114.49-31.95L114.49-31.95Q114.49-31.45 114.44-30.9L114.44-30.9Q113.94-24.2 106.04-17.25L106.04-17.25Q105.79-14.8 105.49-12.5L105.49-12.5Q104.89-7.35 104.89-6.8L104.89-6.8Q104.89-4.2 107.14-4.2L107.14-4.2Q109.59-4.2 111.72-7.03 113.84-9.85 114.99-14.25L114.99-14.25Q115.44-14.1 116.24-13.43 117.04-12.75 117.34-12.25L117.34-12.25Q116.54-8.1 113.74-4.3L113.74-4.3Q112.34-2.35 110.19-1.1L110.19-1.1Q107.74 0.35 104.67 0.35ZM106.74-23.75L106.59-22.25Q111.19-27.3 111.19-31.3L111.19-31.3Q111.19-33.7 109.39-33.7L109.39-33.7Q108.24-33.6 107.87-32.2 107.49-30.8 107.17-27.65 106.84-24.5 106.74-23.75L106.74-23.75ZM134.09-15.3L134.09-15.3Q138.04-12.4 138.04-8.45 138.04-4.5 134.94-2.1 131.84 0.3 127.14 0.3L127.14 0.3Q124.09 0.3 122.06-1.23 120.04-2.75 120.04-5 120.04-7.25 121.54-8.58 123.04-9.9 125.29-10.2L125.29-10.2Q124.24-8.7 124.24-7.33 124.24-5.95 125.19-5.1L125.19-5.1Q126.14-4.25 127.59-4.25 129.04-4.25 129.99-5.33 130.94-6.4 130.94-7.8L130.94-7.8Q130.94-10.1 128.79-11.9L128.79-11.9Q127.49-12.95 125.99-13.88 124.49-14.8 124.39-14.85L124.39-14.85Q124.19-15 123.99-15.1L123.99-15.1Q123.09-14.05 121.39-12.23 119.69-10.4 118.69-9.3L118.69-9.3Q115.89-6.25 115.54-4.2L115.54-4.2Q115.44-3.8 115.44-2.68 115.44-1.55 116.11-0.35 116.79 0.85 117.74 1.45 118.69 2.05 119.61 2.43 120.54 2.8 121.21 2.95 121.89 3.1 121.89 3.15L121.89 3.15Q121.89 3.5 120.79 3.95L120.79 3.95Q118.74 4.7 116.51 4.7 114.29 4.7 112.19 3.1L112.19 3.1Q109.34 0.9 109.34-2.75L109.34-2.75Q109.34-5 110.49-7.2L110.49-7.2Q112.54-11.1 120.09-17.9L120.09-17.9Q118.24-19.75 118.24-21.85 118.24-23.95 119.81-25.4 121.39-26.85 123.54-26.85L123.54-26.85Q125.49-26.85 126.94-25.3L126.94-25.3Q127.89-24.25 127.89-22.65 127.89-21.05 126.84-19.05L126.84-19.05Q132.19-16.65 134.09-15.3ZM123.24-20.95L123.24-20.95Q124.44-22.2 124.44-22.75L124.44-22.75Q124.44-24 123.34-24.1L123.34-24.1Q122.09-24.1 122.09-22.7L122.09-22.7Q122.09-21.85 123.24-20.95ZM142.78-36.83Q143.94-38 145.59-38 147.24-38 148.41-36.83 149.59-35.65 149.59-34 149.59-32.35 148.41-31.2 147.24-30.05 145.59-30.05 143.94-30.05 142.78-31.2 141.64-32.35 141.64-34 141.64-35.65 142.78-36.83ZM140.74-22.15Q141.24-23.05 142.64-23.53 144.03-24 145.41-24 146.78-24 147.84-23.65L147.84-23.65Q145.89-8.6 145.89-8.45L145.89-8.45Q145.64-7.45 145.64-6.78 145.64-6.1 145.74-5.6L145.74-5.6Q145.94-4.3 147.56-4.3 149.19-4.3 150.56-6.43 151.94-8.55 152.64-11.25L152.64-11.25Q152.99-11.05 153.74-10.05 154.49-9.05 154.64-8.55L154.64-8.55Q153.64-4.55 151.24-2.1L151.24-2.1Q148.84 0.35 145.49 0.35 142.14 0.35 140.51-1.3 138.89-2.95 138.89-5.55L138.89-5.55Q138.89-6.1 138.94-6.7L138.94-6.7 140.74-22.15ZM163.63-24.05L163.63-24.05Q168.23-24.05 171.31-21.1 174.38-18.15 174.38-13.9L174.38-13.9Q174.38-7.45 170.61-3.58 166.83 0.3 161.48 0.3 156.13 0.3 153.01-2.75 149.88-5.8 149.88-10.3L149.88-10.3Q149.88-16.6 153.73-20.3L153.73-20.3Q157.63-24.05 163.63-24.05ZM162.66-20Q160.28-20 158.68-17.3 157.08-14.6 156.93-10.5L156.93-10.5Q156.93-7.6 158.11-5.7 159.28-3.8 161.68-3.8 164.08-3.8 165.71-6.45 167.33-9.1 167.33-12.5 167.33-15.9 166.18-17.9L166.18-17.9Q165.03-20 162.66-20ZM191.28-17.5L191.28-17.5Q191.28-19.7 189.26-19.7 187.23-19.7 186.03-17.1L186.03-17.1Q191.43-12.85 191.43-7.55L191.43-7.55Q191.43-3.7 189.28-1.7 187.13 0.3 183.88 0.3 180.63 0.3 179.13-1.73 177.63-3.75 177.63-6.85L177.63-6.85Q177.63-7.8 177.68-8.25L177.68-8.25 179.43-23.5Q181.23-24.05 183.08-24.05L183.08-24.05Q186.13-24.05 186.13-21.8L186.13-21.8 186.13-21.7Q188.13-24.05 191.23-24.05L191.23-24.05Q193.48-24.05 194.73-23.03 195.98-22 195.98-20.3 195.98-18.6 194.71-17.53 193.43-16.45 191.38-16.45L191.38-16.45Q191.28-16.45 191.18-16.45L191.18-16.45Q191.28-17 191.28-17.5ZM188.18-7.8Q188.18-10.7 185.18-13.6L185.18-13.6Q184.28-6.4 184.28-6.35L184.28-6.35Q184.28-4.25 185.98-4.25L185.98-4.25Q188.18-4.25 188.18-7.8L188.18-7.8Z" opacity="1" transform="matrix(1,0,0,1,0,0)" fill="#ffffff" class="wordmark-text-0" data-fill-palette-color="primary" id="text-0"></path></svg></g></svg></g></svg></g></svg></g><g transform="matrix(1,0,0,1,0,8.00176724363945)"><svg viewBox="0 0 244.43135999999996 71.18488213663079" height="71.18488213663079" width="244.43135999999996"><g><svg xmlns="http://www.w3.org/2000/svg" xmlns:xlink="http://www.w3.org/1999/xlink" version="1.1" x="0" y="0" viewBox="5.000906616166365 36.894000000000005 90.00212102146821 26.210999999999984" enable-background="new 0 0 100 100" xml:space="preserve" height="71.18488213663079" width="244.43135999999996" class="icon-icon-0" data-fill-palette-color="accent" id="icon-0"><path d="M56.397 45.984h-2.468c-0.375 0-0.68 0.304-0.68 0.68 0 0.375 0.304 0.679 0.68 0.679h2.468c0.375 0 0.68-0.304 0.68-0.679C57.077 46.288 56.773 45.984 56.397 45.984z" fill="#ffffff" data-fill-palette-color="accent"></path><path d="M90.151 46.136c-0.122-0.096-0.269-0.152-0.429-0.15-6.527-2.263-15.442-4.617-22.142-4.617-0.979 0-1.088 0.053-1.837 0.157-0.36-1.892-1.469-4.632-3.156-4.632-0.751 0-1.385 0.53-1.89 1.573-1.301 1.002-2.217 2.831-2.443 4.828l-8.922 0.076v-1.058c0-0.134-0.048-0.809-1.035-0.809-1.002 0-3.582 0.67-5.589 1.235 1.489-1.175 3.869-2.844 6.045-4.267 0.307-0.2 0.401-0.609 0.208-0.923-0.19-0.312-0.596-0.419-0.916-0.236L37.46 43.366c-0.632-0.028-2.694-0.112-5.297-0.112-5.366 0-12.423 0.345-15.708 1.974-0.868 0.2-7.537 1.809-10.774 4.696-0.005 0.003-0.008 0.01-0.013 0.013-0.015 0.013-0.028 0.028-0.041 0.043-0.015 0.018-0.03 0.033-0.043 0.053-0.01 0.015-0.02 0.03-0.03 0.046-0.013 0.02-0.023 0.041-0.035 0.063-0.005 0.015-0.013 0.033-0.02 0.048-0.008 0.025-0.015 0.048-0.023 0.074-0.003 0.018-0.008 0.033-0.01 0.048-0.003 0.01-0.005 0.02-0.005 0.028-0.312 2.331-0.918 7.88 0.127 9.085 0.195 0.223 0.452 0.355 0.726 0.37l12.281 1.476c0.028 0.003 0.053 0.005 0.081 0.005 0.254 0 0.49-0.145 0.606-0.375l0.122-0.244 0.731-0.091h1.819c1.195 1.586 3.077 2.539 5.099 2.539 2.154 0 4.166-1.096 5.34-2.882h0.992c0.008 0.015 0.013 0.03 0.02 0.046 0.119 0.206 0.337 0.332 0.573 0.337l0.307 0.005 35.93 0.114c0 0 0 0 0.003 0 0.16 0 0.31-0.061 0.429-0.16h1.319c0.025 0 0.048-0.005 0.071-0.005 1.175 1.497 2.996 2.402 4.924 2.402 2.296 0 4.369-1.243 5.462-3.217l3.557 0.069 0.282 0.279c0.129 0.132 0.31 0.205 0.495 0.198l6.226-0.137c0.261-0.005 0.495-0.16 0.604-0.398 0.104-0.228 2.544-5.675 0.774-9.835C93.594 48.133 92.178 46.862 90.151 46.136zM93.104 50.452c0.074 0.173 0.137 0.348 0.195 0.528-1.083-0.279-1.921-1.75-2.43-3.022C91.902 48.562 92.653 49.394 93.104 50.452zM62.588 38.254c0.507 0 1.563 1.816 1.857 3.724-0.363 0.213-1.04 0.561-2.037 0.845l-0.467-3.798C62.238 38.424 62.489 38.254 62.588 38.254zM60.739 40.38l0.337 2.737c-0.444 0.071-0.923 0.127-1.449 0.155C59.78 42.179 60.178 41.154 60.739 40.38zM47.976 42.884v0.49h-2.375C46.603 43.125 47.451 42.945 47.976 42.884zM12.612 47.783c-0.117 0.49-0.332 0.893-0.644 1.202-0.759 0.756-1.877 0.766-1.908 0.766H8.246C9.588 48.955 11.171 48.293 12.612 47.783zM32.021 57.502c-0.013 0.066-0.023 0.134-0.035 0.195-0.005 0.02-0.008 0.038-0.01 0.056l-0.008 0.033c-0.018 0.079-0.038 0.16-0.058 0.239l-0.005 0.018c-0.028 0.094-0.053 0.19-0.089 0.287l-0.051 0.147c-0.094 0.254-0.208 0.497-0.343 0.731-0.895 1.568-2.57 2.539-4.371 2.539-1.839 0-3.529-1-4.412-2.613-0.058-0.101-0.106-0.198-0.147-0.294-0.005-0.013-0.01-0.025-0.018-0.035-0.033-0.071-0.066-0.14-0.099-0.223l-0.005-0.013c-0.005-0.02-0.013-0.038-0.02-0.058-0.023-0.053-0.041-0.109-0.058-0.165L22.27 58.28c-0.033-0.096-0.061-0.195-0.086-0.287-0.025-0.099-0.048-0.203-0.066-0.292-0.02-0.117-0.043-0.244-0.058-0.388-0.008-0.043-0.01-0.089-0.015-0.134 0-0.01 0-0.02-0.003-0.03-0.005-0.035-0.01-0.071-0.01-0.109v-0.041c-0.008-0.094-0.01-0.188-0.01-0.284 0-2.773 2.258-5.031 5.031-5.031 2.775 0 5.031 2.258 5.031 5.031C32.082 56.984 32.062 57.248 32.021 57.502zM34.056 57.702c-0.005 0.015-0.008 0.033-0.008 0.048l-0.01 0.038c-0.028 0.127-0.058 0.261-0.096 0.393 0 0.01-0.003 0.018-0.005 0.028-0.003 0.005-0.005 0.013-0.005 0.018l-0.013 0.041c-0.033 0.114-0.066 0.231-0.112 0.355l-0.028 0.084c-0.018 0.053-0.043 0.104-0.061 0.157h-0.649l0.028-0.084c0.043-0.119 0.079-0.239 0.112-0.358l0.01-0.028c0-0.005 0.003-0.013 0.005-0.018 0.023-0.094 0.046-0.188 0.068-0.282l0.015-0.074c0.008-0.025 0.013-0.056 0.015-0.084 0.015-0.074 0.028-0.15 0.041-0.221 0.051-0.322 0.079-0.66 0.079-1.002 0-3.521-2.867-6.388-6.39-6.388s-6.39 2.867-6.39 6.388c0 0.117 0.005 0.231 0.01 0.348 0.003 0.091 0.013 0.175 0.02 0.239 0.005 0.066 0.013 0.132 0.018 0.178 0.018 0.167 0.046 0.327 0.071 0.477 0.028 0.127 0.056 0.256 0.089 0.386 0.028 0.104 0.069 0.241 0.117 0.383l0.02 0.056c0.023 0.071 0.046 0.139 0.073 0.208 0.01 0.035 0.025 0.071 0.036 0.099 0.015 0.041 0.038 0.081 0.053 0.122h-0.647c-0.033-0.076-0.066-0.15-0.096-0.223 0-0.003-0.005-0.013-0.008-0.02-0.043-0.109-0.084-0.223-0.122-0.332l-0.025-0.074c-0.18-0.548-0.289-1.078-0.325-1.57 0-0.01 0-0.023-0.003-0.033-0.008-0.063-0.015-0.137-0.018-0.211V56.72c-0.114-2.103 0.462-3.884 1.664-5.152 1.243-1.311 3.153-2.065 5.244-2.065 2.41 0 4.653 0.972 6 2.6C34.051 53.574 34.472 55.51 34.056 57.702zM35.028 59.254c0.013-0.038 0.025-0.073 0.038-0.112l0.023-0.066c0.053-0.152 0.096-0.299 0.134-0.429l0.018-0.056c0.01-0.028 0.018-0.063 0.023-0.091 0.023-0.079 0.038-0.152 0.056-0.231h33.5c0.084 0.363 0.193 0.728 0.335 1.093L35.028 59.254zM81.468 58.613c-0.764 1.819-2.534 2.991-4.508 2.991-1.712 0-3.323-0.913-4.193-2.375-0.01-0.015-0.018-0.03-0.028-0.046-0.038-0.066-0.074-0.132-0.107-0.195-0.068-0.127-0.127-0.249-0.18-0.375-0.033-0.079-0.066-0.165-0.099-0.261-0.003-0.005-0.005-0.013-0.008-0.02-0.03-0.079-0.058-0.17-0.096-0.304-0.028-0.096-0.051-0.195-0.074-0.287-0.018-0.086-0.033-0.178-0.048-0.289-0.008-0.038-0.015-0.076-0.015-0.119-0.003-0.023-0.005-0.048-0.008-0.071-0.01-0.056-0.013-0.112-0.015-0.167-0.003-0.01-0.003-0.018-0.003-0.025-0.003-0.015-0.003-0.03-0.003-0.043-0.01-0.086-0.013-0.178-0.013-0.31 0-2.694 2.192-4.888 4.888-4.888 2.697 0 4.891 2.194 4.891 4.888C81.851 57.372 81.721 58.009 81.468 58.613zM83.916 58.44l-0.941-0.033c0.155-0.55 0.233-1.116 0.233-1.692 0-3.445-2.803-6.246-6.248-6.246-3.445 0-6.248 2.801-6.248 6.246 0 0.112 0.003 0.256 0.015 0.411 0.003 0.02 0.003 0.046 0.005 0.074 0.005 0.071 0.013 0.15 0.023 0.233 0.008 0.089 0.02 0.167 0.028 0.223 0.018 0.124 0.041 0.246 0.066 0.365 0.028 0.134 0.061 0.261 0.094 0.375 0.046 0.162 0.084 0.287 0.129 0.406 0.043 0.124 0.086 0.241 0.132 0.345 0.008 0.02 0.018 0.041 0.028 0.061h-0.67c-0.266-0.601-0.446-1.21-0.52-1.783-0.003-0.008-0.003-0.018-0.005-0.025-0.01-0.063-0.023-0.14-0.028-0.221-0.003-0.015-0.003-0.03-0.005-0.046-0.013-0.079-0.02-0.16-0.025-0.241v-0.03l-0.003-0.023c0-0.02-0.003-0.038-0.003-0.058-0.19-2.179 0.307-3.932 1.479-5.208 1.19-1.299 3.014-2.012 5.135-2.012 2.77 0 5.424 1.256 6.758 3.199C84.431 54.341 84.624 56.297 83.916 58.44zM92.508 58.805l-5.495 0.122-0.274-0.272c-0.127-0.127-0.299-0.2-0.479-0.2h-0.926c0.865-2.999 0.035-5.15-0.87-6.466-1.603-2.336-4.622-3.788-7.877-3.788-2.506 0-4.686 0.87-6.137 2.453-1.413 1.54-2.047 3.691-1.834 6.221 0 0.01 0.003 0.025 0.003 0.038H35.535c0.19-2.179-0.373-4.125-1.657-5.677-1.601-1.936-4.234-3.09-7.045-3.09-2.461 0-4.734 0.906-6.231 2.486-1.464 1.545-2.167 3.671-2.035 6.152 0.003 0.117 0.013 0.221 0.023 0.315 0.043 0.601 0.175 1.235 0.391 1.89l0.025 0.079c0.03 0.086 0.061 0.173 0.094 0.259l-0.223 0.028c-0.226 0.028-0.424 0.165-0.525 0.368l-0.071 0.142L6.569 58.455c-0.36-0.769-0.216-4.224 0.162-7.347h3.333c0.18 0 1.717-0.033 2.846-1.147 0.675-0.665 1.061-1.558 1.149-2.661 1.583-0.495 2.745-0.759 2.773-0.766 0.058-0.013 0.112-0.03 0.162-0.058 2.347-1.2 7.735-1.862 15.168-1.862 1.9 0 3.503 0.046 4.465 0.079 0.069 0.025 0.142 0.041 0.221 0.041h11.127v8.491c0 0.375 0.304 0.68 0.68 0.68 0.375 0 0.68-0.304 0.68-0.68v-8.496l8.871-0.074v3.514c0 0.375 0.304 0.68 0.68 0.68 0.375 0 0.68-0.304 0.68-0.68v-3.536c3.374-0.145 5.368-1.332 5.886-1.684 0.69-0.145 0.989-0.221 2.128-0.221 6.517 0 15.186 2.293 21.596 4.508 0.391 1.329 1.725 5.076 4.409 5.147C93.868 55.008 92.901 57.801 92.508 58.805z" fill="#ffffff" data-fill-palette-color="accent"></path><path d="M27.052 53.64c-1.697 0-3.075 1.38-3.075 3.075 0 0.053 0 0.107 0.003 0.16 0.003 0.043 0.005 0.086 0.01 0.127 0.003 0.028 0.005 0.058 0.01 0.086 0.008 0.071 0.02 0.142 0.033 0.223 0.013 0.063 0.028 0.124 0.043 0.19 0.018 0.061 0.035 0.122 0.056 0.183l0.008 0.02c0.01 0.033 0.023 0.068 0.035 0.101 0.005 0.015 0.013 0.033 0.02 0.051 0.02 0.051 0.041 0.099 0.063 0.147 0.03 0.066 0.063 0.132 0.096 0.193 0.54 0.984 1.573 1.596 2.697 1.596 1.101 0 2.126-0.596 2.671-1.55 0.081-0.145 0.152-0.297 0.213-0.459l0.023-0.066c0.02-0.058 0.038-0.117 0.058-0.185 0.003-0.008 0.005-0.013 0.005-0.02 0.01-0.041 0.02-0.081 0.03-0.122l0.008-0.033c0.005-0.023 0.01-0.046 0.013-0.066 0.005-0.03 0.01-0.063 0.015-0.091 0.025-0.155 0.038-0.32 0.038-0.485C30.126 55.02 28.749 53.64 27.052 53.64zM28.746 56.987c-0.003 0.02-0.008 0.041-0.01 0.061-0.003 0.01-0.005 0.02-0.005 0.03l-0.003 0.003c-0.005 0.028-0.013 0.058-0.02 0.081-0.008 0.033-0.018 0.063-0.03 0.101l-0.018 0.056c-0.033 0.084-0.071 0.167-0.117 0.246-0.304 0.535-0.878 0.868-1.492 0.868-0.627 0-1.205-0.34-1.507-0.893-0.015-0.03-0.03-0.058-0.043-0.089-0.005-0.013-0.01-0.023-0.018-0.035-0.008-0.018-0.015-0.033-0.028-0.061-0.003-0.013-0.008-0.023-0.01-0.033-0.008-0.018-0.013-0.035-0.018-0.051l-0.01-0.025c-0.01-0.033-0.02-0.066-0.028-0.091-0.008-0.035-0.015-0.071-0.02-0.094-0.008-0.043-0.015-0.084-0.02-0.129 0-0.005-0.003-0.013-0.003-0.02-0.003-0.01-0.003-0.02-0.003-0.033-0.003-0.008-0.005-0.03-0.005-0.041v-0.023c-0.003-0.033-0.005-0.066-0.005-0.099 0-0.946 0.771-1.715 1.717-1.715 0.946 0 1.717 0.769 1.717 1.715C28.769 56.809 28.762 56.895 28.746 56.987z" fill="#ffffff" data-fill-palette-color="accent"></path><path d="M76.96 53.699c-1.662 0-3.016 1.355-3.016 3.016 0 0.074 0.003 0.142 0.01 0.213 0 0.003 0 0.005 0 0.005 0.003 0.043 0.005 0.084 0.01 0.127 0.003 0.038 0.008 0.074 0.013 0.104 0.01 0.061 0.02 0.122 0.033 0.183 0.015 0.066 0.03 0.129 0.046 0.18 0.018 0.066 0.038 0.132 0.063 0.198 0.018 0.058 0.041 0.117 0.063 0.165 0.033 0.079 0.068 0.152 0.109 0.231 0.02 0.038 0.041 0.076 0.063 0.112 0.003 0.005 0.005 0.01 0.008 0.015 0.003 0.005 0.005 0.01 0.008 0.013 0.54 0.908 1.535 1.471 2.59 1.471 1.218 0 2.311-0.723 2.783-1.847 0.155-0.37 0.233-0.764 0.233-1.17C79.976 55.053 78.624 53.699 76.96 53.699zM78.489 57.359c-0.259 0.616-0.86 1.015-1.53 1.015-0.586 0-1.114-0.299-1.421-0.804-0.003-0.005-0.005-0.008-0.008-0.013-0.013-0.025-0.028-0.051-0.038-0.068-0.023-0.043-0.041-0.084-0.063-0.134-0.01-0.025-0.02-0.051-0.03-0.079-0.003-0.008-0.005-0.015-0.008-0.02-0.01-0.03-0.018-0.061-0.03-0.101-0.008-0.03-0.018-0.063-0.023-0.089-0.005-0.028-0.01-0.058-0.015-0.086 0-0.005-0.003-0.018-0.005-0.023 0-0.02-0.003-0.051-0.008-0.071v-0.033c-0.003-0.005-0.003-0.013-0.003-0.02 0-0.008 0-0.015-0.003-0.023-0.003-0.03-0.003-0.061-0.003-0.094 0-0.913 0.743-1.657 1.657-1.657s1.659 0.743 1.659 1.657C78.619 56.938 78.573 57.154 78.489 57.359z" fill="#ffffff" data-fill-palette-color="accent"></path></svg></g></svg></g></svg></g><defs></defs></svg><rect width="395.52" height="48.78996387224812" fill="none" stroke="none" visibility="hidden"></rect></g></svg></g></svg>